<svg version="1.0" xmlns="http://www.w3.org/2000/svg" width="200" height="250">
  <g id="circles">
    <circle cx="100" cy="140" r="50" stroke="black" stroke-width="15" fill="none"/>
    <circle cx="100" cy="140" r="10"/>
  </g>
  <g id="spokes">
    <rect width="10" height="40" x="95" y="90" />
    <rect width="10" height="40" x="95" y="90" transform="rotate(240 100 140)"/>
    <rect width="10" height="40" x="95" y="90" transform="rotate(120 100 140)"/>
  </g>
  <g id="teeth">
    <polygon points="96,70 104,70 108,85 92,85" />
    <polygon points="96,70 104,70 108,85 92,85" transform="rotate(20 100 140)"/>
    <polygon points="96,70 104,70 108,85 92,85" transform="rotate(40 100 140)"/>
    <polygon points="96,70 104,70 108,85 92,85" transform="rotate(60 100 140)"/>
    <polygon points="96,70 104,70 108,85 92,85" transform="rotate(80 100 140)"/>
    <polygon points="96,70 104,70 108,85 92,85" transform="rotate(100 100 140)"/>
    <polygon points="96,70 104,70 108,85 92,85" transform="rotate(120 100 140)"/>
    <polygon points="96,70 104,70 108,85 92,85" transform="rotate(140 100 140)"/>
    <polygon points="96,70 104,70 108,85 92,85" transform="rotate(160 100 140)"/>
    <polygon points="96,70 104,70 108,85 92,85" transform="rotate(180 100 140)"/>
    <polygon points="96,70 104,70 108,85 92,85" transform="rotate(200 100 140)"/>
    <polygon points="96,70 104,70 108,85 92,85" transform="rotate(220 100 140)"/>
    <polygon points="96,70 104,70 108,85 92,85" transform="rotate(240 100 140)"/>
    <polygon points="96,70 104,70 108,85 92,85" transform="rotate(260 100 140)"/>
    <polygon points="96,70 104,70 108,85 92,85" transform="rotate(280 100 140)"/>
    <polygon points="96,70 104,70 108,85 92,85" transform="rotate(300 100 140)"/>
    <polygon points="96,70 104,70 108,85 92,85" transform="rotate(320 100 140)"/>
    <polygon points="96,70 104,70 108,85 92,85" transform="rotate(340 100 140)"/>
  </g>
</svg>